<?xml version="1.0" encoding="UTF-8"?>
<svg height="16px" viewBox="0 0 16 16" width="16px" xmlns="http://www.w3.org/2000/svg">
    <g fill="#241f31">
        <path d="m 15.394531 15 h -1.648437 c -0.628906 0 -0.695313 -0.257812 -0.214844 -0.664062 c 0.625 -0.53125 1.15625 -1.171876 1.566406 -1.894532 c 0.132813 -0.238281 0.277344 -0.222656 0.339844 0.046875 l 0.429688 1.921875 c 0.03125 0.144532 -0.003907 0.292969 -0.09375 0.40625 c -0.09375 0.117188 -0.230469 0.183594 -0.378907 0.183594 z m 0 0"/>
        <path d="m 0.605469 15 h 1.648437 c 0.628906 0 0.695313 -0.257812 0.214844 -0.664062 c -0.625 -0.53125 -1.15625 -1.171876 -1.5625 -1.894532 c -0.136719 -0.238281 -0.28125 -0.222656 -0.34375 0.046875 l -0.429688 1.921875 c -0.03125 0.144532 0.003907 0.292969 0.09375 0.40625 c 0.09375 0.117188 0.230469 0.183594 0.378907 0.183594 z m 0 0"/>
        <path d="m 9.5 8 c 0 0.828125 -0.671875 1.5 -1.5 1.5 s -1.5 -0.671875 -1.5 -1.5 s 0.671875 -1.5 1.5 -1.5 s 1.5 0.671875 1.5 1.5 z m 0 0"/>
        <path d="m 11.550781 3.234375 c -0.347656 0.410156 -0.328125 0.898437 0.085938 1.335937 c 0.867187 0.917969 1.363281 2.140626 1.363281 3.429688 c 0 2.761719 -2.238281 5 -5 5 s -5 -2.238281 -5 -5 c 0.003906 -1.304688 0.519531 -2.539062 1.40625 -3.457031 c 0.417969 -0.433594 0.382812 -0.917969 0 -1.375 c -0.347656 -0.421875 -0.804688 -0.632813 -1.238281 -0.214844 c -1.371094 1.304687 -2.164063 3.125 -2.167969 5.046875 c 0 3.867188 3.132812 7 7 7 s 7 -3.132812 7 -7 c 0 -1.925781 -0.792969 -3.75 -2.164062 -5.058594 c -0.433594 -0.414062 -0.902344 -0.164062 -1.285157 0.292969 z m 0 0"/>
        <path d="m 6.332031 0 h 3.335938 c 0.460937 0 0.832031 0.382812 0.832031 0.855469 v 0.902343 c 0 0.242188 -0.105469 0.476563 -0.289062 0.632813 l -1.625 1.390625 c -0.339844 0.292969 -0.832032 0.292969 -1.171876 0 l -1.625 -1.390625 c -0.183593 -0.15625 -0.289062 -0.390625 -0.289062 -0.632813 v -0.902343 c 0 -0.472657 0.371094 -0.855469 0.832031 -0.855469 z m 0 0"/>
        <path d="m 4.492188 7.5 h 7.015624 c 0.222657 0 0.398438 0.179688 0.398438 0.398438 v 0.203124 c 0 0.21875 -0.175781 0.398438 -0.398438 0.398438 h -7.015624 c -0.222657 0 -0.398438 -0.179688 -0.398438 -0.398438 v -0.203124 c 0 -0.21875 0.175781 -0.398438 0.398438 -0.398438 z m 0 0"/>
        <path d="m 5.8125 10.789062 l 3.507812 -6.078124 c 0.109376 -0.191407 0.355469 -0.253907 0.546876 -0.144532 l 0.171874 0.097656 c 0.191407 0.113282 0.257813 0.355469 0.148438 0.546876 l -3.507812 6.078124 c -0.109376 0.191407 -0.355469 0.253907 -0.546876 0.144532 l -0.171874 -0.097656 c -0.191407 -0.113282 -0.257813 -0.355469 -0.148438 -0.546876 z m 0 0"/>
        <path d="m 6.679688 4.710938 l 3.507812 6.078124 c 0.109375 0.191407 0.042969 0.433594 -0.148438 0.546876 l -0.171874 0.097656 c -0.191407 0.109375 -0.4375 0.046875 -0.546876 -0.144532 l -3.507812 -6.078124 c -0.109375 -0.191407 -0.042969 -0.433594 0.148438 -0.546876 l 0.171874 -0.097656 c 0.191407 -0.109375 0.4375 -0.046875 0.546876 0.144532 z m 0 0"/>
    </g>
</svg>
