<?xml version="1.0" encoding="UTF-8"?>
<svg height="128px" viewBox="0 0 128 128" width="128px" xmlns="http://www.w3.org/2000/svg" xmlns:xlink="http://www.w3.org/1999/xlink">
    <linearGradient id="a" gradientUnits="userSpaceOnUse" x1="4" x2="124" y1="68" y2="68">
        <stop offset="0.0999641" stop-color="#77767b"/>
        <stop offset="0.5" stop-color="#9a9996"/>
        <stop offset="0.900036" stop-color="#77767b"/>
    </linearGradient>
    <linearGradient id="b" gradientUnits="userSpaceOnUse" x1="48.775059" x2="63.999851" y1="11.99913" y2="38.369247">
        <stop offset="0.196925" stop-color="#f9f06b"/>
        <stop offset="1" stop-color="#f6d32d"/>
    </linearGradient>
    <linearGradient id="c" gradientUnits="userSpaceOnUse" x1="10.815447" x2="52.614578" y1="49.485535" y2="73.618271">
        <stop offset="0" stop-color="#3584e4"/>
        <stop offset="0.145933" stop-color="#62a0ea"/>
        <stop offset="1" stop-color="#3584e4"/>
    </linearGradient>
    <linearGradient id="d" gradientUnits="userSpaceOnUse" x1="20.511452" x2="63.421822" y1="110.671661" y2="85.897339">
        <stop offset="0" stop-color="#57e389"/>
        <stop offset="1" stop-color="#33d17a"/>
    </linearGradient>
    <linearGradient id="e" gradientUnits="userSpaceOnUse" x1="66.538574" x2="99.973373" y1="81.162323" y2="100.465912">
        <stop offset="0" stop-color="#ed333b"/>
        <stop offset="1" stop-color="#e01b24"/>
    </linearGradient>
    <linearGradient id="f" gradientUnits="userSpaceOnUse" x1="70.908386" x2="121.06411" y1="66.912689" y2="80.351868">
        <stop offset="0" stop-color="#9141ac"/>
        <stop offset="0.203265" stop-color="#c061cb"/>
        <stop offset="1" stop-color="#9141ac"/>
    </linearGradient>
    <linearGradient id="g" gradientUnits="userSpaceOnUse" x1="112.938393" x2="112.938393" y1="13.290131" y2="58.659348">
        <stop offset="0.197636" stop-color="#ffa348"/>
        <stop offset="1" stop-color="#ff7800"/>
    </linearGradient>
    <linearGradient id="h" gradientUnits="userSpaceOnUse">
        <stop offset="0" stop-color="#deddda"/>
        <stop offset="1" stop-color="#c0bfbc"/>
    </linearGradient>
    <linearGradient id="i" x1="175.908643" x2="295.908646" xlink:href="#h" y1="-63.90863" y2="-63.90863"/>
    <linearGradient id="j" gradientTransform="matrix(-1.51771 0 0 -1.51771 424.526367 -31.25737)" gradientUnits="userSpaceOnUse" x1="226.955124" x2="248.112717" y1="-64.364151" y2="-64.364151">
        <stop offset="0.097587" stop-color="#77767b"/>
        <stop offset="0.5" stop-color="#9a9996"/>
        <stop offset="0.902767" stop-color="#77767b"/>
    </linearGradient>
    <linearGradient id="k" gradientUnits="userSpaceOnUse" x1="220.90730284182" x2="250.05305086694" y1="-63.89033803081" y2="-63.89033803081">
        <stop offset="0" stop-color="#f6f5f4"/>
        <stop offset="1" stop-color="#deddda"/>
    </linearGradient>
    <linearGradient id="l" x1="221.32939329246" x2="249.631154" xlink:href="#h" y1="-63.890302" y2="-63.890302"/>
    <linearGradient id="m" gradientTransform="matrix(1.534982 0 0 1.432283 2.475851 -260.114899)" gradientUnits="userSpaceOnUse" x1="-2.352612" x2="13.327611" y1="229.719803" y2="229.719803">
        <stop offset="0.098377" stop-color="#5e5c64"/>
        <stop offset="0.5" stop-color="#77767b"/>
        <stop offset="0.9" stop-color="#5e5c64"/>
    </linearGradient>
    <linearGradient id="n" gradientUnits="userSpaceOnUse" x1="10.346323" x2="10.346323" y1="242.961899" y2="217.84053">
        <stop offset="0" stop-color="#9141ac"/>
        <stop offset="1" stop-color="#c061cb"/>
    </linearGradient>
    <radialGradient id="o" cx="5.488889" cy="229.719818" gradientTransform="matrix(1 0 0 1.796534 0 -182.979584)" gradientUnits="userSpaceOnUse" r="7.427314">
        <stop offset="0" stop-color="#c0bfbc"/>
        <stop offset="1" stop-color="#9a9996"/>
    </radialGradient>
    <path d="m 116.507812 97.035156 c -16.035156 28.996094 -52.542968 39.507813 -81.542968 23.472656 c -28.996094 -16.035156 -39.507813 -52.542968 -23.472656 -81.542968 c 16.035156 -28.996094 52.542968 -39.507813 81.542968 -23.472656 c 28.996094 16.035156 39.507813 52.542968 23.472656 81.542968 l -52.507812 -29.035156 z m 0 0" fill="url(#a)"/>
    <path d="m 112.132812 92.613281 c -14.699218 26.582031 -48.164062 36.21875 -74.746093 21.519531 c -26.582031 -14.699218 -36.21875 -48.164062 -21.519531 -74.746093 c 14.699218 -26.582031 48.164062 -36.21875 74.746093 -21.519531 c 26.582031 14.699218 36.21875 48.164062 21.519531 74.746093 l -48.132812 -26.613281 z m 0 0" fill="#5c76f8"/>
    <path d="m 64 10.9375 c -19.609375 -0.003906 -37.734375 10.433594 -47.578125 27.394531 l 47.578125 27.46875 z m 0 0" fill="url(#b)"/>
    <path d="m 64 65.800781 l -47.578125 -27.46875 c -0.1875 0.28125 -0.371094 0.566407 -0.554687 0.851563 c -9.308594 16.882812 -9.101563 37.402344 0.542968 54.09375 z m 0 0" fill="url(#c)"/>
    <path d="m 64 65.800781 l -47.589844 27.476563 c 4.984375 8.660156 12.238282 15.800781 20.972656 20.652344 c 8.160157 4.457031 17.320313 6.773437 26.617188 6.730468 z m 0 0" fill="url(#d)"/>
    <path d="m 111.578125 93.269531 l -47.578125 -27.46875 v 54.859375 c 19.609375 0.003906 37.734375 -10.433594 47.578125 -27.390625 z m 0 0" fill="url(#e)"/>
    <path d="m 111.625 38.300781 l -47.625 27.5 l 47.578125 27.46875 c 0.1875 -0.285156 0.371094 -0.566406 0.550781 -0.855469 h 0.003906 c 9.332032 -16.878906 9.136719 -37.410156 -0.507812 -54.113281 z m 0 0" fill="url(#f)"/>
    <path d="m 64 10.9375 v 54.863281 l 47.625 -27.5 c -4.996094 -8.660156 -12.261719 -15.792969 -21.011719 -20.632812 c -8.160156 -4.457031 -17.316406 -6.773438 -26.613281 -6.730469 z m 0 0" fill="url(#g)"/>
    <g stroke="#241f31" stroke-width="2">
        <path d="m 64 10.929688 v 111.886718" fill="none"/>
        <path d="m 16.277344 38.453125 l 96.933594 55.964844" fill="#5c76f8"/>
        <path d="m 111.742188 38.441406 l -96.953126 55.976563" fill="#5c76f8"/>
    </g>
    <path d="m 293.316406 -63.910156 c 0 31.707031 -25.703125 57.410156 -57.40625 57.410156 c -31.707031 0 -57.410156 -25.703125 -57.410156 -57.410156 c 0 -31.703125 25.703125 -57.40625 57.410156 -57.40625 c 31.703125 0 57.40625 25.703125 57.40625 57.40625 z m 0 0" fill="none" stroke="url(#i)" stroke-width="5" transform="matrix(0 1 -1 0 0 -172)"/>
    <path d="m 49.101562 66.429688 c 0 -8.238282 6.679688 -14.917969 14.917969 -14.917969 s 14.917969 6.679687 14.917969 14.917969 c 0 8.238281 -6.679688 14.917968 -14.917969 14.917968 s -14.917969 -6.679687 -14.917969 -14.917968 z m 0 0" fill="url(#j)"/>
    <path d="m 249.019531 -63.890625 c 0 7.476563 -6.0625 13.539063 -13.539062 13.539063 c -7.476563 0 -13.539063 -6.0625 -13.539063 -13.539063 c 0 -7.476562 6.0625 -13.539062 13.539063 -13.539062 c 7.476562 0 13.539062 6.0625 13.539062 13.539062 z m 0 0" fill="url(#k)" stroke="url(#l)" stroke-width="3" transform="matrix(0 1 -1 0 0 -172)"/>
    <path d="m 1.046875 49.578125 l -0.460937 32.226563 c -0.015626 1.148437 0.722656 2.191406 1.863281 2.628906 c 1.144531 0.433594 2.453125 0.171875 3.304687 -0.660156 l 14.3125 -13.976563 c 2.230469 -2.179687 2.292969 -5.589844 0.144532 -7.835937 l -13.664063 -14.296876 c -0.863281 -0.90625 -2.234375 -1.222656 -3.453125 -0.796874 c -1.214844 0.421874 -2.027344 1.5 -2.046875 2.710937 z m 0 0" fill="url(#m)" fill-rule="evenodd"/>
    <path d="m -1.297247 218.599897 v 22.28075 c 0 0.623944 0.377338 1.185493 0.953744 1.426158 c 0.573434 0.237693 1.238975 0.106962 1.678707 -0.335742 l 9.873173 -9.873173 c 0.695252 -0.692281 1.078532 -1.637111 1.069619 -2.617595 c -0.008914 -0.980484 -0.410021 -1.9164 -1.117157 -2.596796 l -9.778097 -9.424528 c -0.454588 -0.439732 -1.132013 -0.564521 -1.717332 -0.317915 c -0.582348 0.249578 -0.962657 0.823012 -0.962657 1.458841 z m 0 0" fill="url(#n)" fill-rule="evenodd" stroke="url(#o)" stroke-linejoin="bevel" stroke-width="2.28185" transform="matrix(1.314721 0 0 1.314721 3.689892 -238.10881)"/>
</svg>
