<?xml version="1.0" encoding="UTF-8"?>
<svg height="128px" viewBox="0 0 128 128" width="128px" xmlns="http://www.w3.org/2000/svg" xmlns:xlink="http://www.w3.org/1999/xlink">
    <linearGradient id="a" gradientUnits="userSpaceOnUse" x1="8.0000085" x2="120.0000085" y1="115.999977" y2="115.999977">
        <stop offset="0"/>
        <stop offset="0.0357143" stop-color="#3d3846"/>
        <stop offset="0.0713653" stop-color="#241f31"/>
        <stop offset="0.928571" stop-color="#241f31"/>
        <stop offset="0.964286" stop-color="#3d3846"/>
        <stop offset="1"/>
    </linearGradient>
    <linearGradient id="b" gradientUnits="userSpaceOnUse" x1="4" x2="124" y1="68" y2="68">
        <stop offset="0" stop-color="#9a9996"/>
        <stop offset="0.04" stop-color="#deddda"/>
        <stop offset="0.08" stop-color="#c0bfbc"/>
        <stop offset="0.92" stop-color="#c0bfbc"/>
        <stop offset="0.96" stop-color="#deddda"/>
        <stop offset="1" stop-color="#9a9996"/>
    </linearGradient>
    <linearGradient id="c" gradientUnits="userSpaceOnUse" x1="64" x2="64" y1="66.304276" y2="111.076416">
        <stop offset="0" stop-color="#c061cb"/>
        <stop offset="1" stop-color="#9141ac"/>
    </linearGradient>
    <linearGradient id="d" gradientUnits="userSpaceOnUse" x1="91.996094" x2="91.996094" y1="67.640884" y2="114.862366">
        <stop offset="0" stop-color="#ffa348"/>
        <stop offset="1" stop-color="#ff7800"/>
    </linearGradient>
    <linearGradient id="e" gradientUnits="userSpaceOnUse" x1="119.99025" x2="119.99025" y1="66.762604" y2="110.310425">
        <stop offset="0" stop-color="#ed333b"/>
        <stop offset="1" stop-color="#e01b24"/>
    </linearGradient>
    <linearGradient id="f" gradientUnits="userSpaceOnUse" x1="119.990227" x2="119.990227" y1="17.66658" y2="61.101166">
        <stop offset="0" stop-color="#f8e45c"/>
        <stop offset="1" stop-color="#f6d32d"/>
    </linearGradient>
    <linearGradient id="g" gradientUnits="userSpaceOnUse" x1="64" x2="64" y1="16.992813" y2="62.354675">
        <stop offset="0" stop-color="#62a0ea"/>
        <stop offset="1" stop-color="#3584e4"/>
    </linearGradient>
    <linearGradient id="h" gradientUnits="userSpaceOnUse" x1="91.986328" x2="91.986328" y1="10.157303" y2="54.91011">
        <stop offset="0" stop-color="#57e389"/>
        <stop offset="1" stop-color="#33d17a"/>
    </linearGradient>
    <radialGradient id="i" cx="64.000053" cy="236" gradientTransform="matrix(1 0 0 0.874855 0 -142.465708)" gradientUnits="userSpaceOnUse" r="55.986977">
        <stop offset="0" stop-color="#241f31"/>
        <stop offset="1" stop-color="#3d3846"/>
    </radialGradient>
    <radialGradient id="j" cx="63.999996" cy="183.799744" gradientTransform="matrix(1 0 0 0.811627 0 34.622852)" gradientUnits="userSpaceOnUse" r="16.988991">
        <stop offset="0" stop-color="#77767b"/>
        <stop offset="1" stop-color="#865e3c"/>
    </radialGradient>
    <radialGradient id="k" cx="64.949776" cy="179.451782" gradientTransform="matrix(1.44898 -0.0798264 0.0719706 1.306386 -42.364891 -47.188747)" gradientUnits="userSpaceOnUse" r="16.988991">
        <stop offset="0" stop-color="#77767b"/>
        <stop offset="1" stop-color="#986a44"/>
    </radialGradient>
    <linearGradient id="l" gradientUnits="userSpaceOnUse">
        <stop offset="0" stop-color="#c0bfbc"/>
        <stop offset="1" stop-color="#9a9996"/>
    </linearGradient>
    <radialGradient id="m" cx="55.342712" cy="8.342712" r="2.342712" xlink:href="#l"/>
    <radialGradient id="n" cx="72.642706" cy="8.342712" r="2.342712" xlink:href="#l"/>
    <linearGradient id="o" gradientUnits="userSpaceOnUse" x1="64.02621035383" x2="64.02621035383" y1="225.5645955257" y2="246.43734396858">
        <stop offset="0" stop-color="#deddda"/>
        <stop offset="1" stop-color="#c0bfbc"/>
    </linearGradient>
    <path d="m 20 40 h 88 c 4.433594 0 7.707031 3.578125 8 8 l 4 60 c 0.292969 4.421875 -3.566406 8 -8 8 h -96 c -4.433594 0 -8.292969 -3.578125 -8 -8 l 4 -60 c 0.292969 -4.421875 3.566406 -8 8 -8 z m 0 0" fill="url(#a)"/>
    <path d="m 20 28 h 88 c 4.433594 0 7.738281 3.574219 8 8 l 4 68 c 0.261719 4.425781 -3.566406 8 -8 8 h -96 c -4.433594 0 -8.261719 -3.574219 -8 -8 l 4 -68 c 0.261719 -4.425781 3.566406 -8 8 -8 z m 0 0" fill="#5e5c64"/>
    <path d="m 116.5 97.027344 c -16.035156 28.992187 -52.535156 39.503906 -81.527344 23.472656 c -28.992187 -16.035156 -39.503906 -52.535156 -23.472656 -81.527344 c 16.035156 -28.992187 52.535156 -39.503906 81.527344 -23.472656 c 28.992187 16.035156 39.503906 52.535156 23.472656 81.527344 l -52.5 -29.027344 z m 0 0" fill="url(#b)"/>
    <path d="m 116.5 93.027344 c -16.035156 28.992187 -52.535156 39.503906 -81.527344 23.472656 c -28.992187 -16.035156 -39.503906 -52.535156 -23.472656 -81.527344 c 16.035156 -28.992187 52.535156 -39.503906 81.527344 -23.472656 c 28.992187 16.035156 39.503906 52.535156 23.472656 81.527344 l -52.5 -29.027344 z m 0 0" fill="#f6f5f4"/>
    <path d="m 64 64 h -55.992188 c 0.019532 19.371094 10.113282 38.148438 28.007813 48.472656 z m 0 0" fill="url(#c)"/>
    <path d="m 64 64 l -27.984375 48.472656 c 0.296875 0.171875 0.589844 0.355469 0.890625 0.527344 c 17.8125 9.847656 38.652344 8.960938 55.089844 -0.511719 z m 0 0" fill="url(#d)"/>
    <path d="m 64 64 l 27.996094 48.488281 c 8.535156 -4.917969 15.886718 -12.144531 21.003906 -21.394531 c 4.753906 -8.605469 7 -17.914062 6.988281 -27.09375 z m 0 0" fill="url(#e)"/>
    <path d="m 64 64 h 55.988281 c -0.015625 -19.371094 -10.109375 -38.148438 -28.003906 -48.472656 z m 0 0" fill="url(#f)"/>
    <path d="m 36.003906 15.511719 c -8.535156 4.917969 -15.886718 12.144531 -21.003906 21.394531 c -4.753906 8.605469 -7 17.914062 -6.992188 27.09375 h 55.992188 z m 0 0" fill="url(#g)"/>
    <path d="m 36.003906 15.511719 l 27.996094 48.488281 l 27.984375 -48.472656 c -0.296875 -0.171875 -0.589844 -0.355469 -0.890625 -0.527344 c -17.8125 -9.847656 -38.652344 -8.960938 -55.089844 0.511719 z m 0 0" fill="url(#h)"/>
    <path d="m 36.875 15.019531 c -0.582031 0.324219 -1.15625 0.660157 -1.730469 1.003907 l 27.121094 46.976562 h -54.246094 c -0.011719 0.667969 -0.007812 1.332031 0.007813 2 h 54.238281 l -27.121094 46.980469 c 0.574219 0.34375 1.152344 0.671875 1.734375 0.996093 l 27.121094 -46.976562 l 27.125 46.980469 c 0.582031 -0.324219 1.15625 -0.660157 1.730469 -1.003907 l -27.121094 -46.976562 h 54.246094 c 0.011719 -0.667969 0.007812 -1.332031 -0.007813 -2 h -54.238281 l 27.121094 -46.980469 c -0.574219 -0.34375 -1.152344 -0.671875 -1.734375 -0.996093 l -27.121094 46.976562 z m 0 0" fill="url(#i)"/>
    <path d="m 54.074247 172.01101 h 19.851563 c 2.796875 0 5.0625 2.265625 5.0625 5.0625 v 6.730469 c 0 2.085937 -1.050782 4.035156 -2.796875 5.179687 l -8.3125 5.457032 c -2.351563 1.542968 -5.398438 1.53125 -7.738282 -0.027344 l -8.34375 -5.558594 c -1.742187 -1.160156 -2.785156 -3.113281 -2.785156 -5.203125 v -6.578125 c 0 -2.796875 2.265625 -5.0625 5.0625 -5.0625 z m 0 0" fill="#986a44" stroke="url(#j)" stroke-width="4" transform="matrix(1 0 0 1 -0.000028 -166.01101)"/>
    <path d="m 54.074214 172.011001 h 19.851562 c 2.796875 0 5.0625 2.265625 5.0625 5.0625 v 6.730469 c 0 2.085938 -1.050781 4.035156 -2.796875 5.179688 l -8.3125 5.457031 c -2.351562 1.542969 -5.398437 1.53125 -7.738281 -0.027344 l -8.34375 -5.558594 c -1.742187 -1.160156 -2.785156 -3.113281 -2.785156 -5.203125 v -6.578125 c 0 -2.796875 2.265625 -5.0625 5.0625 -5.0625 z m 0 0" fill="#b5835a" stroke="url(#k)" stroke-width="4" transform="matrix(1 0 0 1 0.000005 -170.011001)"/>
    <path d="m 57.683594 8.34375 c 0 1.292969 -1.046875 2.339844 -2.339844 2.339844 s -2.34375 -1.046875 -2.34375 -2.339844 s 1.050781 -2.34375 2.34375 -2.34375 s 2.339844 1.050781 2.339844 2.34375 z m 0 0" fill="url(#m)"/>
    <path d="m 74.984375 8.34375 c 0 1.292969 -1.046875 2.339844 -2.339844 2.339844 c -1.296875 0 -2.34375 -1.046875 -2.34375 -2.339844 s 1.046875 -2.34375 2.34375 -2.34375 c 1.292969 0 2.339844 1.050781 2.339844 2.34375 z m 0 0" fill="url(#n)"/>
    <path d="m 74.410156 236 c 0 5.75 -4.660156 10.410156 -10.410156 10.410156 s -10.410156 -4.660156 -10.410156 -10.410156 s 4.660156 -10.410156 10.410156 -10.410156 s 10.410156 4.660156 10.410156 10.410156 z m 0 0" fill="url(#o)" stroke="#5e5c64" stroke-width="2" transform="matrix(1 0 0 1 0 -172)"/>
</svg>
